<svg width="400" height="53" viewBox="0 0 400 53" fill="none" xmlns="http://www.w3.org/2000/svg">
<mask id="mask0_214_2619" style="mask-type:luminance" maskUnits="userSpaceOnUse" x="0" y="0" width="61" height="53">
<path d="M0 0H60.8486V52.2493H0V0Z" fill="white"/>
</mask>
<g mask="url(#mask0_214_2619)">
<mask id="mask1_214_2619" style="mask-type:luminance" maskUnits="userSpaceOnUse" x="0" y="0" width="61" height="53">
<path d="M0 0H60.8486V52.2493H0V0Z" fill="white"/>
</mask>
<g mask="url(#mask1_214_2619)">
<path d="M30.8834 41.9948C30.8805 41.8026 30.9686 41.6203 31.1213 41.5028C31.2296 41.4439 31.3514 41.4141 31.4748 41.4166C31.6711 41.4201 31.8629 41.4762 32.0301 41.5791C32.7426 42.0393 33.568 42.2959 34.4166 42.321C34.5736 42.3213 34.7304 42.31 34.8857 42.2872C36.8102 42.154 38.3271 40.3945 38.3271 38.2829C38.3271 36.1713 36.8191 34.4115 34.8936 34.2798C34.7357 34.2561 34.5763 34.2443 34.4166 34.2445C33.5679 34.2698 32.7423 34.5267 32.0297 34.987C31.8626 35.0896 31.671 35.1456 31.4748 35.1492C31.3517 35.1516 31.2301 35.1219 31.1219 35.0632C30.9689 34.9459 30.8805 34.7634 30.8834 34.5709V29.5561C30.8834 29.3476 30.8834 29.1562 30.8804 28.9809V28.9407C30.8724 27.9783 30.8684 27.4967 31.1338 27.2296C31.3821 26.9797 31.846 26.9617 32.5801 26.9617L33.4825 26.965H37.7327C39.0475 26.965 39.9379 26.6209 40.3064 25.9698C40.6103 25.4339 40.5379 24.6946 40.1131 23.9929C39.4888 22.9614 39.4982 22.2145 39.5597 21.8612C39.6303 20.4913 40.8981 19.4326 42.4468 19.4326C43.9955 19.4326 45.2633 20.4913 45.3317 21.8426C45.3957 22.2139 45.406 22.9595 44.7814 23.9929C44.3563 24.694 44.2842 25.4339 44.5875 25.9701C44.9544 26.6209 45.8461 26.965 47.1618 26.965H58.2112C57.6708 28.0115 57.0592 29.0198 56.3805 29.9829C54.9415 31.8587 53.3408 33.6057 51.5967 35.2038L31.9661 51.434C31.6391 51.7475 31.2756 52.021 30.8834 52.2485V41.9948Z" fill="#3682AE"/>
</g>
<mask id="mask2_214_2619" style="mask-type:luminance" maskUnits="userSpaceOnUse" x="0" y="0" width="61" height="53">
<path d="M0 0H60.8486V52.2493H0V0Z" fill="white"/>
</mask>
<g mask="url(#mask2_214_2619)">
<path d="M29.7553 52.1297C29.4505 51.9193 29.161 51.6877 28.8891 51.4365L9.2512 35.1999C7.50883 33.6023 5.90931 31.8565 4.47076 29.9823C3.74712 28.9551 3.09893 27.877 2.53125 26.7566H14.6796C14.8725 26.7536 15.0555 26.8415 15.1734 26.9937C15.232 27.0991 15.2621 27.2178 15.2608 27.3382C15.2575 27.5366 15.2009 27.7305 15.0969 27.8997C14.635 28.6094 14.3773 29.4318 14.3518 30.2774C14.3517 30.4341 14.3631 30.5906 14.386 30.7456C14.519 32.6639 16.284 34.1759 18.4026 34.1759C20.5213 34.1759 22.2859 32.6725 22.4177 30.7533C22.4418 30.5958 22.4537 30.4367 22.4535 30.2774C22.4279 29.4319 22.1705 28.6094 21.7093 27.8994C21.6048 27.7304 21.548 27.5364 21.5448 27.3379C21.5436 27.2177 21.5738 27.0992 21.6322 26.994C21.7499 26.8417 21.9329 26.7537 22.1257 26.7566H26.9074C27.1392 26.7566 27.3517 26.7548 27.5458 26.7529L28.0021 26.7505C28.768 26.7505 29.2887 26.7788 29.5334 27.158C29.7563 27.5028 29.756 28.0823 29.7557 29.2373V33.583C29.7557 34.5414 29.9361 35.2666 30.292 35.7388C30.5697 36.1239 31.0205 36.347 31.4961 36.3347C31.9361 36.3212 32.3644 36.1905 32.7366 35.9561C33.2721 35.6028 33.8945 35.4025 34.5361 35.377C34.6496 35.3766 34.7629 35.3859 34.8749 35.4047C36.249 35.4757 37.311 36.739 37.311 38.2832C37.311 39.8275 36.249 41.0908 34.8932 41.1596C34.7752 41.1796 34.6558 41.1898 34.5361 41.1901C33.8945 41.1646 33.2721 40.9643 32.7366 40.6109C32.3644 40.3769 31.9362 40.2464 31.4964 40.233C30.8463 40.233 29.7557 40.5905 29.7557 42.9844L29.7553 52.1297Z" fill="#102036"/>
</g>
<mask id="mask3_214_2619" style="mask-type:luminance" maskUnits="userSpaceOnUse" x="0" y="0" width="61" height="53">
<path d="M0 0H60.8486V52.2493H0V0Z" fill="white"/>
</mask>
<g mask="url(#mask3_214_2619)">
<path d="M32.621 25.6255C31.815 25.6255 31.4117 25.6011 31.1998 25.3777C30.9986 25.1643 31.019 24.8024 31.053 24.2004C31.0695 23.9096 31.0921 23.5109 31.0921 23.0286V18.7933C31.0921 16.3991 30.0017 16.0415 29.3517 16.0415C28.9117 16.0551 28.4834 16.1857 28.1112 16.4198C27.5762 16.7731 26.9544 16.9734 26.3132 16.999C26.1993 16.9995 26.0855 16.9901 25.9732 16.971C24.5988 16.9003 23.5371 15.6367 23.5371 14.093C23.5371 12.5494 24.5987 11.2849 25.9545 11.2163C26.0723 11.1964 26.1916 11.1862 26.3111 11.1859C26.9529 11.2114 27.5755 11.4117 28.1112 11.765C28.4836 11.9988 28.9118 12.1293 29.3517 12.143C30.0017 12.143 31.0921 11.7855 31.0921 9.3916V7.73453C31.2144 7.6062 31.3419 7.44768 31.4872 7.26753C31.5587 7.17486 37.1345 0 44.8766 0C54.4296 0 60.848 7.07213 60.848 17.5965C60.848 20.0602 60.1827 22.7591 58.87 25.6197H46.1679C45.975 25.6226 45.7921 25.5346 45.6744 25.3822C45.6158 25.2768 45.5855 25.158 45.5866 25.0375C45.5898 24.8391 45.6466 24.6454 45.7511 24.4766C46.2125 23.7667 46.47 22.9444 46.4957 22.0989C46.4961 21.9423 46.4845 21.7858 46.4611 21.631C46.3284 19.7126 44.5638 18.1998 42.4448 18.1998C40.3258 18.1998 38.5615 19.7035 38.4291 21.623C38.4056 21.7806 38.3939 21.9396 38.394 22.0989C38.4193 22.9449 38.6767 23.7677 39.1382 24.4781C39.2427 24.6471 39.2997 24.8411 39.303 25.0396C39.3042 25.16 39.2739 25.2786 39.2153 25.3838C39.0975 25.5362 38.9144 25.6242 38.7214 25.6212H33.9401C33.6468 25.6212 33.3836 25.6231 33.1472 25.6249L32.621 25.6255Z" fill="#A5B2BA"/>
</g>
<mask id="mask4_214_2619" style="mask-type:luminance" maskUnits="userSpaceOnUse" x="0" y="0" width="61" height="53">
<path d="M0 0H60.8486V52.2493H0V0Z" fill="white"/>
</mask>
<g mask="url(#mask4_214_2619)">
<path d="M18.4032 32.9433C16.8545 32.9433 15.5867 31.8846 15.5176 30.5333C15.4543 30.1611 15.4452 29.414 16.068 28.383C16.4927 27.6819 16.5649 26.9421 16.2613 26.4059C15.8925 25.755 15.0027 25.4112 13.6876 25.4112H1.88539C0.634479 22.625 0 19.9971 0 17.5965C0 7.07213 6.41693 0 15.968 0C23.9554 0 29.2902 7.17333 29.3431 7.24588C29.5214 7.48767 29.7307 7.70514 29.9656 7.89274V10.3814C29.9685 10.5737 29.8802 10.756 29.7275 10.8734C29.6192 10.9323 29.4973 10.962 29.374 10.9597C29.1777 10.956 28.9859 10.9 28.8187 10.7975C28.1062 10.3372 27.2808 10.0805 26.4321 10.0552C26.2755 10.0547 26.119 10.0661 25.964 10.0894C24.0395 10.222 22.5216 11.9815 22.5216 14.0934C22.5216 16.2052 24.03 17.9647 25.9558 18.0967C26.1135 18.12 26.2727 18.1317 26.4321 18.1318C27.2809 18.1065 28.1065 17.8497 28.819 17.3892C28.9865 17.2866 29.1786 17.2306 29.3752 17.227C29.4979 17.225 29.6192 17.2545 29.7271 17.3127C29.8802 17.4301 29.9686 17.6128 29.9656 17.8053V22.8201C29.9656 23.0286 29.9656 23.2201 29.9687 23.3956V23.4353C29.9767 24.3979 29.9806 24.8796 29.7152 25.1463C29.4666 25.3966 29.0025 25.4145 28.2677 25.4145L27.3666 25.4112H23.1164C21.8015 25.4112 20.9105 25.7553 20.5424 26.4065C20.2384 26.9427 20.3112 27.6819 20.7362 28.3833C21.3612 29.4158 21.3511 30.1614 21.2891 30.5141C21.2187 31.8855 19.9519 32.9433 18.4032 32.9433Z" fill="#EDA0A0"/>
</g>
</g>
<path d="M89.8351 38.5788C89.1782 38.5788 88.6503 38.3098 88.2515 37.7719L80.1224 27.1067L83.3248 23.844L91.7354 34.9302C92.0639 35.3746 92.2281 35.854 92.2281 36.3686C92.2281 37.0235 91.9817 37.5556 91.4891 37.9649C90.9964 38.3742 90.4451 38.5788 89.8351 38.5788ZM90.2574 13.8453C90.8204 13.8453 91.2838 14.0734 91.6474 14.5295C92.0111 14.9855 92.1929 15.4475 92.1929 15.9152C92.1929 16.4064 91.9817 16.8625 91.5595 17.2835L76.8144 31.3517L76.6385 26.3349L88.533 14.6522C89.0726 14.1143 89.6474 13.8453 90.2574 13.8453ZM75.0549 38.5788C74.398 38.5788 73.8701 38.3742 73.4713 37.9649C73.0725 37.5556 72.873 37.0469 72.873 36.4387V16.1608C72.873 15.5527 73.0842 15.044 73.5065 14.6347C73.9288 14.2254 74.4684 14.0208 75.1253 14.0208C75.7822 14.0208 76.3042 14.2254 76.6913 14.6347C77.0784 15.044 77.2719 15.5527 77.2719 16.1608V36.4387C77.2719 37.0469 77.0725 37.5556 76.6737 37.9649C76.2748 38.3742 75.7352 38.5788 75.0549 38.5788ZM104.968 19.5288L97.367 37.3509C97.2028 37.7953 96.9506 38.1403 96.6104 38.3859C96.2702 38.6314 95.9007 38.7542 95.5019 38.7542C94.8684 38.7542 94.3992 38.5788 94.0942 38.228C93.7892 37.8771 93.6368 37.4445 93.6368 36.9299C93.6368 36.7194 93.6719 36.4972 93.7423 36.2633L102.505 15.2837C102.693 14.816 102.98 14.4534 103.367 14.1962C103.754 13.9389 104.171 13.8336 104.616 13.8804C105.039 13.8804 105.432 14.0032 105.795 14.2488C106.159 14.4944 106.423 14.8394 106.587 15.2837L115.244 35.8423C115.361 36.1464 115.42 36.4271 115.42 36.6843C115.42 37.3158 115.215 37.8187 114.804 38.1929C114.394 38.5671 113.942 38.7542 113.449 38.7542C113.027 38.7542 112.646 38.6256 112.306 38.3683C111.965 38.111 111.701 37.7602 111.514 37.3158L103.948 19.7393L104.968 19.5288ZM98.4579 33.0708L100.393 29.0362H109.895L110.564 33.0708H98.4579ZM120.944 38.5788C120.287 38.5788 119.701 38.3742 119.185 37.9649C118.668 37.5556 118.41 37.0469 118.41 36.4387V16.1608C118.41 15.5527 118.616 15.044 119.026 14.6347C119.437 14.2254 119.947 14.0208 120.557 14.0208H130.692C131.912 14.0208 133.056 14.3423 134.123 14.9855C135.191 15.6287 136.053 16.5175 136.71 17.6518C137.367 18.7862 137.695 20.0901 137.695 21.5636C137.695 22.4524 137.513 23.3177 137.15 24.1597C136.786 25.0017 136.293 25.7618 135.672 26.4401C135.05 27.1184 134.352 27.6446 133.578 28.0188L133.613 27.2119C134.27 27.5628 134.815 27.9779 135.249 28.4574C135.683 28.9368 136.023 29.4514 136.27 30.001C136.516 30.5507 136.663 31.1412 136.71 31.7727C136.804 32.3574 136.868 32.872 136.903 33.3164C136.938 33.7607 137.009 34.135 137.114 34.439C137.22 34.7431 137.425 34.977 137.73 35.1407C138.246 35.4447 138.569 35.8833 138.698 36.4563C138.827 37.0293 138.692 37.538 138.293 37.9824C138.035 38.2864 137.707 38.4794 137.308 38.5613C136.909 38.6431 136.51 38.6431 136.111 38.5613C135.713 38.4794 135.384 38.3683 135.126 38.228C134.727 37.9941 134.328 37.6491 133.93 37.193C133.531 36.737 133.208 36.123 132.962 35.3512C132.716 34.5794 132.592 33.5853 132.592 32.3691C132.592 31.9715 132.522 31.6031 132.381 31.264C132.24 30.9249 132.041 30.6325 131.783 30.3869C131.525 30.1414 131.196 29.9543 130.798 29.8256C130.399 29.697 129.93 29.6327 129.39 29.6327H122.281L122.809 28.8258V36.4387C122.809 37.0469 122.645 37.5556 122.317 37.9649C121.988 38.3742 121.531 38.5788 120.944 38.5788ZM122.317 26.0191H130.516C130.938 26.0191 131.349 25.8262 131.748 25.4402C132.147 25.0543 132.475 24.5281 132.733 23.8615C132.991 23.1949 133.12 22.464 133.12 21.6688C133.12 20.6397 132.845 19.7802 132.293 19.0902C131.742 18.4003 131.15 18.0553 130.516 18.0553H122.387L122.809 16.9326V26.8611L122.317 26.0191ZM144.734 14.0208H156.523C157.133 14.0208 157.643 14.2137 158.053 14.5996C158.464 14.9855 158.669 15.4825 158.669 16.0906C158.669 16.6754 158.464 17.149 158.053 17.5115C157.643 17.874 157.133 18.0553 156.523 18.0553H146.669L146.986 17.4589V24.3001L146.704 24.0194H154.939C155.549 24.0194 156.059 24.2123 156.47 24.5983C156.88 24.9842 157.086 25.4812 157.086 26.0893C157.086 26.674 156.88 27.1476 156.47 27.5101C156.059 27.8727 155.549 28.0539 154.939 28.0539H146.81L146.986 27.7733V34.86L146.704 34.5443H156.523C157.133 34.5443 157.643 34.7489 158.053 35.1582C158.464 35.5675 158.669 36.0411 158.669 36.5791C158.669 37.1638 158.464 37.6433 158.053 38.0175C157.643 38.3917 157.133 38.5788 156.523 38.5788H144.734C144.124 38.5788 143.613 38.3742 143.203 37.9649C142.792 37.5556 142.587 37.0469 142.587 36.4387V16.1608C142.587 15.5527 142.792 15.044 143.203 14.6347C143.613 14.2254 144.124 14.0208 144.734 14.0208ZM174.789 13.9857C175.117 13.9857 175.463 14.0734 175.827 14.2488C176.19 14.4242 176.466 14.6522 176.654 14.9329L185.205 28.0539L183.446 27.9838L192.208 14.9329C192.654 14.3014 193.229 13.9857 193.932 13.9857C194.495 13.9857 195 14.1845 195.446 14.5821C195.891 14.9797 196.114 15.4942 196.114 16.1257V36.4387C196.114 37.0469 195.915 37.5556 195.516 37.9649C195.117 38.3742 194.589 38.5788 193.932 38.5788C193.276 38.5788 192.742 38.3742 192.331 37.9649C191.921 37.5556 191.715 37.0469 191.715 36.4387V19.9147L193.088 20.2304L185.909 31.1412C185.698 31.3985 185.434 31.6207 185.117 31.8078C184.8 31.9949 184.478 32.0768 184.149 32.0534C183.844 32.0768 183.533 31.9949 183.217 31.8078C182.9 31.6207 182.636 31.3985 182.425 31.1412L175.703 20.5462L176.618 18.6868V36.4387C176.618 37.0469 176.431 37.5556 176.055 37.9649C175.68 38.3742 175.187 38.5788 174.577 38.5788C173.991 38.5788 173.51 38.3742 173.135 37.9649C172.759 37.5556 172.572 37.0469 172.572 36.4387V16.1257C172.572 15.541 172.789 15.0382 173.223 14.6172C173.657 14.1962 174.179 13.9857 174.789 13.9857ZM210.436 19.5288L202.835 37.3509C202.67 37.7953 202.418 38.1403 202.078 38.3859C201.738 38.6314 201.368 38.7542 200.97 38.7542C200.336 38.7542 199.867 38.5788 199.562 38.228C199.257 37.8771 199.104 37.4445 199.104 36.9299C199.104 36.7194 199.14 36.4972 199.21 36.2633L207.973 15.2837C208.16 14.816 208.448 14.4534 208.835 14.1962C209.222 13.9389 209.638 13.8336 210.084 13.8804C210.506 13.8804 210.899 14.0032 211.263 14.2488C211.627 14.4944 211.89 14.8394 212.055 15.2837L220.712 35.8423C220.829 36.1464 220.888 36.4271 220.888 36.6843C220.888 37.3158 220.682 37.8187 220.272 38.1929C219.861 38.5671 219.41 38.7542 218.917 38.7542C218.495 38.7542 218.113 38.6256 217.773 38.3683C217.433 38.111 217.169 37.7602 216.981 37.3158L209.415 19.7393L210.436 19.5288ZM203.926 33.0708L205.861 29.0362H215.363L216.031 33.0708H203.926ZM230.459 38.5788C229.802 38.5788 229.263 38.3742 228.84 37.9649C228.418 37.5556 228.207 37.0469 228.207 36.4387V16.0906H232.782V36.4387C232.782 37.0469 232.565 37.5556 232.131 37.9649C231.697 38.3742 231.14 38.5788 230.459 38.5788ZM222.682 18.0553C222.072 18.0553 221.562 17.8682 221.151 17.494C220.741 17.1197 220.535 16.6286 220.535 16.0205C220.535 15.4124 220.741 14.9271 221.151 14.5645C221.562 14.202 222.072 14.0208 222.682 14.0208H238.307C238.917 14.0208 239.427 14.2079 239.838 14.5821C240.248 14.9563 240.453 15.4475 240.453 16.0556C240.453 16.6637 240.248 17.149 239.838 17.5115C239.427 17.874 238.917 18.0553 238.307 18.0553H222.682ZM253.545 38.5788C252.888 38.5788 252.348 38.3742 251.926 37.9649C251.504 37.5556 251.292 37.0469 251.292 36.4387V16.0906H255.867V36.4387C255.867 37.0469 255.65 37.5556 255.216 37.9649C254.782 38.3742 254.225 38.5788 253.545 38.5788ZM245.768 18.0553C245.158 18.0553 244.647 17.8682 244.237 17.494C243.826 17.1197 243.621 16.6286 243.621 16.0205C243.621 15.4124 243.826 14.9271 244.237 14.5645C244.647 14.202 245.158 14.0208 245.768 14.0208H261.392C262.002 14.0208 262.513 14.2079 262.923 14.5821C263.334 14.9563 263.539 15.4475 263.539 16.0556C263.539 16.6637 263.334 17.149 262.923 17.5115C262.513 17.874 262.002 18.0553 261.392 18.0553H245.768ZM269.38 14.0208H281.169C281.779 14.0208 282.289 14.2137 282.7 14.5996C283.11 14.9855 283.315 15.4825 283.315 16.0906C283.315 16.6754 283.11 17.149 282.7 17.5115C282.289 17.874 281.779 18.0553 281.169 18.0553H271.315L271.632 17.4589V24.3001L271.351 24.0194H279.585C280.195 24.0194 280.705 24.2123 281.116 24.5983C281.527 24.9842 281.732 25.4812 281.732 26.0893C281.732 26.674 281.527 27.1476 281.116 27.5101C280.705 27.8727 280.195 28.0539 279.585 28.0539H271.456L271.632 27.7733V34.86L271.351 34.5443H281.169C281.779 34.5443 282.289 34.7489 282.7 35.1582C283.11 35.5675 283.315 36.0411 283.315 36.5791C283.315 37.1638 283.11 37.6433 282.7 38.0175C282.289 38.3917 281.779 38.5788 281.169 38.5788H269.38C268.77 38.5788 268.26 38.3742 267.849 37.9649C267.438 37.5556 267.233 37.0469 267.233 36.4387V16.1608C267.233 15.5527 267.438 15.044 267.849 14.6347C268.26 14.2254 268.77 14.0208 269.38 14.0208ZM289.897 38.5788C289.24 38.5788 288.654 38.3742 288.137 37.9649C287.621 37.5556 287.363 37.0469 287.363 36.4387V16.1608C287.363 15.5527 287.568 15.044 287.979 14.6347C288.39 14.2254 288.9 14.0208 289.51 14.0208H299.645C300.865 14.0208 302.008 14.3423 303.076 14.9855C304.143 15.6287 305.006 16.5175 305.662 17.6518C306.319 18.7862 306.648 20.0901 306.648 21.5636C306.648 22.4524 306.466 23.3177 306.102 24.1597C305.739 25.0017 305.246 25.7618 304.624 26.4401C304.003 27.1184 303.305 27.6446 302.53 28.0188L302.566 27.2119C303.223 27.5628 303.768 27.9779 304.202 28.4574C304.636 28.9368 304.976 29.4514 305.223 30.001C305.469 30.5507 305.616 31.1412 305.662 31.7727C305.756 32.3574 305.821 32.872 305.856 33.3164C305.891 33.7607 305.962 34.135 306.067 34.439C306.173 34.7431 306.378 34.977 306.683 35.1407C307.199 35.4447 307.522 35.8833 307.651 36.4563C307.78 37.0293 307.645 37.538 307.246 37.9824C306.988 38.2864 306.66 38.4794 306.261 38.5613C305.862 38.6431 305.463 38.6431 305.064 38.5613C304.665 38.4794 304.337 38.3683 304.079 38.228C303.68 37.9941 303.281 37.6491 302.882 37.193C302.484 36.737 302.161 36.123 301.915 35.3512C301.668 34.5794 301.545 33.5853 301.545 32.3691C301.545 31.9715 301.475 31.6031 301.334 31.264C301.193 30.9249 300.994 30.6325 300.736 30.3869C300.478 30.1414 300.149 29.9543 299.75 29.8256C299.352 29.697 298.882 29.6327 298.343 29.6327H291.234L291.762 28.8258V36.4387C291.762 37.0469 291.598 37.5556 291.269 37.9649C290.941 38.3742 290.483 38.5788 289.897 38.5788ZM291.269 26.0191H299.469C299.891 26.0191 300.302 25.8262 300.701 25.4402C301.099 25.0543 301.428 24.5281 301.686 23.8615C301.944 23.1949 302.073 22.464 302.073 21.6688C302.073 20.6397 301.797 19.7802 301.246 19.0902C300.695 18.4003 300.102 18.0553 299.469 18.0553H291.34L291.762 16.9326V26.8611L291.269 26.0191ZM319.458 38.9296C317.815 38.9296 316.337 38.725 315.024 38.3157C313.71 37.9064 312.455 37.1872 311.258 36.1581C310.953 35.9008 310.719 35.6085 310.554 35.281C310.39 34.9536 310.308 34.6261 310.308 34.2987C310.308 33.7607 310.502 33.2871 310.889 32.8778C311.276 32.4685 311.763 32.2639 312.349 32.2639C312.795 32.2639 313.194 32.4042 313.546 32.6849C314.437 33.4099 315.323 33.9596 316.203 34.3338C317.082 34.708 318.167 34.8951 319.458 34.8951C320.326 34.8951 321.123 34.7606 321.851 34.4916C322.578 34.2227 323.165 33.8602 323.61 33.4041C324.056 32.948 324.279 32.4276 324.279 31.8429C324.279 31.1412 324.068 30.5448 323.645 30.0537C323.223 29.5625 322.578 29.1473 321.71 28.8082C320.842 28.4691 319.739 28.206 318.402 28.0188C317.135 27.8317 316.021 27.5452 315.059 27.1593C314.097 26.7734 313.293 26.2822 312.648 25.6858C312.003 25.0894 311.516 24.3878 311.188 23.5809C310.859 22.7739 310.695 21.8676 310.695 20.8619C310.695 19.3417 311.088 18.0436 311.874 16.9677C312.66 15.8918 313.722 15.0732 315.059 14.5119C316.396 13.9506 317.874 13.6699 319.493 13.6699C321.018 13.6699 322.431 13.898 323.733 14.354C325.036 14.8101 326.097 15.389 326.918 16.0906C327.599 16.6286 327.939 17.2484 327.939 17.95C327.939 18.4646 327.739 18.9324 327.341 19.3534C326.942 19.7744 326.472 19.9849 325.933 19.9849C325.581 19.9849 325.264 19.8796 324.983 19.6691C324.607 19.3417 324.103 19.0318 323.47 18.7394C322.836 18.447 322.167 18.2015 321.464 18.0027C320.76 17.8039 320.103 17.7045 319.493 17.7045C318.484 17.7045 317.634 17.8331 316.942 18.0904C316.249 18.3476 315.728 18.6985 315.376 19.1429C315.024 19.5872 314.848 20.1018 314.848 20.6865C314.848 21.3882 315.053 21.967 315.464 22.4231C315.874 22.8792 316.467 23.2417 317.241 23.5107C318.015 23.7797 318.942 24.0194 320.021 24.2299C321.428 24.4872 322.666 24.7912 323.733 25.142C324.801 25.4929 325.687 25.9431 326.39 26.4927C327.094 27.0424 327.622 27.7323 327.974 28.5626C328.326 29.3929 328.502 30.4045 328.502 31.5973C328.502 33.1176 328.08 34.4273 327.235 35.5266C326.39 36.6259 325.282 37.4678 323.909 38.0526C322.537 38.6373 321.053 38.9296 319.458 38.9296ZM355.986 34.4741C356.596 34.4741 357.107 34.6671 357.517 35.053C357.928 35.4389 358.133 35.9359 358.133 36.544C358.133 37.1287 357.928 37.614 357.517 37.9999C357.107 38.3858 356.596 38.5788 355.986 38.5788H344.549C343.939 38.5788 343.429 38.3742 343.019 37.9649C342.608 37.5556 342.403 37.0469 342.403 36.4387V16.1608C342.403 15.5527 342.614 15.044 343.036 14.6347C343.458 14.2254 343.998 14.0208 344.655 14.0208C345.218 14.0208 345.717 14.2254 346.151 14.6347C346.585 15.044 346.802 15.5527 346.802 16.1608V35.0705L346.027 34.4741H355.986ZM375.764 34.4741C376.374 34.4741 376.884 34.6671 377.295 35.053C377.706 35.4389 377.911 35.9359 377.911 36.544C377.911 37.1287 377.706 37.614 377.295 37.9999C376.884 38.3858 376.374 38.5788 375.764 38.5788H364.327C363.717 38.5788 363.207 38.3742 362.796 37.9649C362.386 37.5556 362.181 37.0469 362.181 36.4387V16.1608C362.181 15.5527 362.392 15.044 362.814 14.6347C363.236 14.2254 363.776 14.0208 364.433 14.0208C364.996 14.0208 365.494 14.2254 365.928 14.6347C366.362 15.044 366.579 15.5527 366.579 16.1608V35.0705L365.805 34.4741H375.764ZM398.85 15.2136C399.46 15.5176 399.817 15.9971 399.923 16.652C400.028 17.3069 399.858 17.9033 399.413 18.4412C399.108 18.8622 398.715 19.0961 398.234 19.1429C397.753 19.1896 397.266 19.0961 396.773 18.8622C396.21 18.6049 395.618 18.4061 394.996 18.2658C394.374 18.1255 393.723 18.0553 393.043 18.0553C391.776 18.0553 390.644 18.2541 389.647 18.6517C388.65 19.0493 387.8 19.6165 387.096 20.3532C386.392 21.09 385.858 21.9612 385.495 22.9669C385.131 23.9726 384.949 25.0836 384.949 26.2998C384.949 27.7265 385.154 28.9661 385.565 30.0186C385.976 31.0711 386.544 31.9481 387.272 32.6498C387.999 33.3514 388.855 33.8718 389.841 34.211C390.826 34.5501 391.893 34.7197 393.043 34.7197C393.677 34.7197 394.31 34.6612 394.943 34.5443C395.577 34.4273 396.187 34.2168 396.773 33.9128C397.266 33.6789 397.753 33.597 398.234 33.6672C398.715 33.7374 399.119 33.9829 399.448 34.4039C399.917 34.9887 400.087 35.5909 399.958 36.2107C399.829 36.8305 399.471 37.2807 398.885 37.5614C398.275 37.8655 397.647 38.1169 397.002 38.3157C396.357 38.5145 395.706 38.6665 395.049 38.7718C394.392 38.877 393.723 38.9296 393.043 38.9296C391.354 38.9296 389.753 38.6607 388.24 38.1227C386.726 37.5848 385.377 36.7896 384.193 35.7371C383.008 34.6846 382.075 33.369 381.395 31.7903C380.715 30.2115 380.374 28.3814 380.374 26.2998C380.374 24.4989 380.685 22.8383 381.307 21.318C381.929 19.7977 382.808 18.4821 383.946 17.3712C385.084 16.2602 386.427 15.3948 387.976 14.775C389.524 14.1552 391.213 13.8453 393.043 13.8453C394.075 13.8453 395.084 13.9623 396.069 14.1962C397.055 14.4301 397.982 14.7692 398.85 15.2136Z" fill="white"/>
</svg>
